<svg width="163" height="49" viewBox="0 0 163 49" fill="none" xmlns="http://www.w3.org/2000/svg">
<path d="M11.06 13.53C11.06 10.48 8.59 8 5.53 8C2.48 8 0 10.48 0 13.53C0 16.58 2.48 19.06 5.53 19.06C8.59 19.06 11.06 16.59 11.06 13.53ZM4.77 13.53C4.77 13.11 5.11 12.77 5.53 12.77C5.95 12.77 6.29 13.11 6.29 13.53C6.29 13.95 5.95 14.29 5.53 14.29C5.11 14.29 4.77 13.95 4.77 13.53Z" fill="white"/>
<path d="M6.60999 25.4199L17.88 38.9299H26.31L15.04 25.4199H6.60999Z" fill="white"/>
<path d="M15.04 23.8401L26.31 10.3301H17.88L6.60999 23.8401H15.04Z" fill="white"/>
<path d="M1.96002 29.0604V38.9504H8.11002V29.2704L5.09002 25.6504L1.96002 29.0604Z" fill="white"/>
<path d="M24.4 29.4V26.92H34.88V29.4H24.4ZM60.7134 11H65.9134V39H60.7134V11ZM46.2334 39H41.0334V11H46.2334V39ZM61.1134 27H45.7934V22.56H61.1134V27ZM82.5363 39.28C80.3496 39.28 78.4029 38.8133 76.6963 37.88C74.9896 36.92 73.6429 35.6133 72.6563 33.96C71.6696 32.3067 71.1763 30.4267 71.1763 28.32C71.1763 26.1867 71.6696 24.3067 72.6563 22.68C73.6429 21.0267 74.9896 19.7333 76.6963 18.8C78.4029 17.8667 80.3496 17.4 82.5363 17.4C84.7496 17.4 86.7096 17.8667 88.4163 18.8C90.1496 19.7333 91.4963 21.0133 92.4563 22.64C93.4429 24.2667 93.9363 26.16 93.9363 28.32C93.9363 30.4267 93.4429 32.3067 92.4563 33.96C91.4963 35.6133 90.1496 36.92 88.4163 37.88C86.7096 38.8133 84.7496 39.28 82.5363 39.28ZM82.5363 35C83.7629 35 84.8563 34.7333 85.8163 34.2C86.7763 33.6667 87.5229 32.8933 88.0563 31.88C88.6163 30.8667 88.8963 29.68 88.8963 28.32C88.8963 26.9333 88.6163 25.7467 88.0563 24.76C87.5229 23.7467 86.7763 22.9733 85.8163 22.44C84.8563 21.9067 83.7763 21.64 82.5763 21.64C81.3496 21.64 80.2563 21.9067 79.2963 22.44C78.3629 22.9733 77.6163 23.7467 77.0563 24.76C76.4963 25.7467 76.2163 26.9333 76.2163 28.32C76.2163 29.68 76.4963 30.8667 77.0563 31.88C77.6163 32.8933 78.3629 33.6667 79.2963 34.2C80.2563 34.7333 81.3363 35 82.5363 35ZM125.678 17.4C127.384 17.4 128.891 17.7333 130.198 18.4C131.531 19.0667 132.571 20.0933 133.318 21.48C134.064 22.84 134.438 24.6 134.438 26.76V39H129.438V27.4C129.438 25.5067 129.024 24.0933 128.198 23.16C127.371 22.2267 126.184 21.76 124.638 21.76C123.544 21.76 122.571 22 121.718 22.48C120.891 22.96 120.238 23.6667 119.758 24.6C119.304 25.5333 119.078 26.72 119.078 28.16V39H114.078V27.4C114.078 25.5067 113.664 24.0933 112.838 23.16C112.011 22.2267 110.824 21.76 109.278 21.76C108.184 21.76 107.211 22 106.358 22.48C105.531 22.96 104.878 23.6667 104.398 24.6C103.944 25.5333 103.718 26.72 103.718 28.16V39H98.7175V17.64H103.478V23.32L102.638 21.64C103.358 20.2533 104.398 19.2 105.758 18.48C107.144 17.76 108.718 17.4 110.478 17.4C112.478 17.4 114.211 17.8933 115.678 18.88C117.171 19.8667 118.158 21.36 118.638 23.36L116.678 22.68C117.371 21.08 118.518 19.8 120.118 18.84C121.718 17.88 123.571 17.4 125.678 17.4ZM150.906 39.28C148.533 39.28 146.453 38.8133 144.666 37.88C142.906 36.92 141.533 35.6133 140.546 33.96C139.586 32.3067 139.106 30.4267 139.106 28.32C139.106 26.1867 139.573 24.3067 140.506 22.68C141.466 21.0267 142.773 19.7333 144.426 18.8C146.106 17.8667 148.013 17.4 150.146 17.4C152.226 17.4 154.079 17.8533 155.706 18.76C157.333 19.6667 158.613 20.9467 159.546 22.6C160.479 24.2533 160.946 26.2 160.946 28.44C160.946 28.6533 160.933 28.8933 160.906 29.16C160.906 29.4267 160.893 29.68 160.866 29.92H143.066V26.6H158.226L156.266 27.64C156.293 26.4133 156.039 25.3333 155.506 24.4C154.973 23.4667 154.239 22.7333 153.306 22.2C152.399 21.6667 151.346 21.4 150.146 21.4C148.919 21.4 147.839 21.6667 146.906 22.2C145.999 22.7333 145.279 23.48 144.746 24.44C144.239 25.3733 143.986 26.48 143.986 27.76V28.56C143.986 29.84 144.279 30.9733 144.866 31.96C145.453 32.9467 146.279 33.7067 147.346 34.24C148.413 34.7733 149.639 35.04 151.026 35.04C152.226 35.04 153.306 34.8533 154.266 34.48C155.226 34.1067 156.079 33.52 156.826 32.72L159.506 35.8C158.546 36.92 157.333 37.7867 155.866 38.4C154.426 38.9867 152.773 39.28 150.906 39.28Z" fill="white"/>
</svg>
